<?xml version="1.0" encoding="UTF-8"?>
<svg id="Capa_1" data-name="Capa 1" xmlns="http://www.w3.org/2000/svg" viewBox="0 0 375 375">
  <defs>
    <style>
      .cls-1 {
        fill: #1aac8c;
      }
    </style>
  </defs>
  <path class="cls-1" d="m115.51,255.92c7.09,0,13.94.1,20.78-.02,18.95-.32,33.32,7.83,43.75,23.41,4.08,6.1,3.97,6,8.87.25,11-12.9,22.07-25.73,33.24-38.48,2.02-2.3,2.1-3.7-.75-5.01-1.87-.86-1.64-2.21-.77-3.71,2.26-3.88,4.55-7.74,6.73-11.66,1.49-2.69,3.2-1.57,4.95-.46,8.68,5.56,17.96,9.8,27.97,12.27,9.85,2.43,19.86,3.47,30.02,3.3,2.77-.05,3.48-1.02,3.06-3.58-1.86-11.19-3.41-22.43-5.53-33.57-2.06-10.81-9.68-16.73-20.67-16.77-4.86-.02-9.73-.05-14.59,0-2.68.03-3.36-.89-2.1-3.38,2.31-4.56,4.48-9.19,6.69-13.8.8-1.67,1.86-2.99,3.91-2.96,9.47.13,18.98-.81,28.4.46,11.86,1.6,19.86,9.13,21.91,20.89,3.24,18.54,6.05,37.15,9.03,55.73,5.15,32.12,10.18,64.26,15.5,96.35,1.48,8.94.83,17.11-5.16,24.33-4.73,5.7-10.74,8.85-18.2,8.85-83.07.02-166.14.04-249.21-.01-14.78,0-25.92-14.2-23.45-29.8,5.51-34.71,11.15-69.4,16.71-104.11,2.7-16.86,5.22-33.75,8.07-50.58,2.26-13.36,11.92-21.61,25.74-22.09,7.97-.27,15.96-.03,23.95-.08,2.07-.01,3.55.61,4.5,2.59,2.32,4.84,4.72,9.63,7.17,14.4,1.16,2.27.6,3.22-1.94,3.2-5.24-.03-10.48-.04-15.72.01-10.34.1-18.24,6.53-19.97,16.72-3.04,17.94-5.82,35.92-8.71,53.89-.18,1.1-.57,2.37.69,3.02,1.46.75,2.95.37,4.21-.61,4.61-3.61,9.21-7.25,13.79-10.9,13.65-10.87,27.32-21.74,40.93-32.66,1.97-1.58,3.28-1.84,4.62.74,2,3.87,4.2,7.65,6.47,11.38,1.16,1.9.78,2.98-.93,4.33-10.78,8.47-21.47,17.06-32.19,25.62-.65.52-1.57.83-1.77,2.49Zm27.09,92.89c18.45,0,36.9.01,55.34-.02,1.17,0,2.7.55,3.37-.86.46-.98-.56-1.83-1.08-2.64-12.33-18.89-24.62-37.81-37.03-56.64-5.66-8.59-13.89-13.5-24.07-13.71-19.94-.4-39.89-.13-59.83-.17-2.25,0-3.32.85-3.68,3.19-2.36,15.26-4.98,30.49-7.26,45.76-2.28,15.28,6.38,25.07,21.9,25.09,17.45.02,34.9,0,52.35,0Zm111.15-36.61c-16.09,0-32.17-.01-48.26.02-1.04,0-2.48-.55-3.01.71-.39.93.67,1.78,1.2,2.6,6.67,10.24,13.39,20.44,20,30.72,1.24,1.93,2.8,2.59,4.98,2.58,20.2-.04,40.4.06,60.6-.09,8.58-.06,15.97-6.29,18.32-14.55,1.54-5.41.29-10.63-.59-15.9-1.01-6.08-1-6.09-7.23-6.09-15.34,0-30.68,0-46.02,0Zm-.88-18.85c15.33,0,30.66,0,45.99-.01,1.93,0,4.22.51,3.65-2.92-1.8-10.81-3.5-21.64-5.2-32.46-.31-1.95-1.36-2.72-3.29-2.78-4.48-.13-8.95-.55-13.43-.56-12.12-.01-23.73-2.7-35.08-6.63-2.4-.83-3.77-.48-5.43,1.47-11.54,13.56-23.22,27.01-34.83,40.51-.68.79-2.13,1.46-1.47,2.71.59,1.14,2.03.64,3.1.64,15.33.03,30.66.02,45.99.02Z"/>
  <path class="cls-1" d="m271.75,91.99c-.84,10.73-3.6,21.05-7.36,31.14-10.4,27.91-24.32,54.1-38.99,79.92-6.22,10.95-12.71,21.74-19.08,32.61-8.54,14.56-26.54,15.22-35.79,1-11.91-18.3-22.45-37.41-32.68-56.69-10.89-20.5-20.62-41.48-28.44-63.41-13.89-38.95,5.07-77.36,34.84-95.81,30.34-18.81,71.27-15.76,97.98,7.67,17.4,15.26,27.32,34.31,28.85,57.56.07.99.27,1.97.38,2.97.11.99.19,1.98.29,3.04Zm-34.46,1.86c0-27.56-21.67-49.61-48.81-49.65-27.26-.04-50.03,22.24-49.9,48.82.13,27.68,22.28,49.94,49.65,49.89,27.1-.04,49.06-22.01,49.06-49.06Z"/>
  <path class="cls-1" d="m215.61,93.18c.05,15.52-12.18,27.94-27.6,28.03-14.87.09-27.17-12.35-27.2-27.5-.03-15.4,12.22-27.91,27.23-27.8,15.13.11,27.53,12.37,27.57,27.26Z"/>
</svg>