<?xml version="1.0" encoding="UTF-8"?>
<svg id="Capa_1" data-name="Capa 1" xmlns="http://www.w3.org/2000/svg" viewBox="0 0 197.97 204.58">
  <defs>
    <style>
      .cls-1 {
        fill: #555554;
      }

      .cls-2 {
        fill: #1aac8c;
      }
    </style>
  </defs>
  <g>
    <path class="cls-2" d="m77.63,78.2c2.09,0,4.1.03,6.12,0,5.58-.09,9.81,2.31,12.88,6.89,1.2,1.8,1.17,1.77,2.61.07,3.24-3.8,6.5-7.57,9.78-11.33.59-.68.62-1.09-.22-1.48-.55-.25-.48-.65-.23-1.09.67-1.14,1.34-2.28,1.98-3.43.44-.79.94-.46,1.46-.13,2.55,1.64,5.29,2.88,8.23,3.61,2.9.71,5.85,1.02,8.84.97.81-.01,1.02-.3.9-1.05-.55-3.29-1-6.6-1.63-9.88-.61-3.18-2.85-4.93-6.08-4.94-1.43,0-2.86-.01-4.3,0-.79,0-.99-.26-.62-.99.68-1.34,1.32-2.71,1.97-4.06.24-.49.55-.88,1.15-.87,2.79.04,5.59-.24,8.36.14,3.49.47,5.85,2.69,6.45,6.15.95,5.46,1.78,10.93,2.66,16.4,1.52,9.45,3,18.91,4.56,28.36.44,2.63.24,5.04-1.52,7.16-1.39,1.68-3.16,2.6-5.36,2.6-24.45,0-48.9.01-73.35,0-4.35,0-7.63-4.18-6.9-8.77,1.62-10.22,3.28-20.43,4.92-30.64.8-4.96,1.54-9.93,2.37-14.89.67-3.93,3.51-6.36,7.58-6.5,2.35-.08,4.7,0,7.05-.02.61,0,1.05.18,1.33.76.68,1.42,1.39,2.84,2.11,4.24.34.67.18.95-.57.94-1.54,0-3.08-.01-4.63,0-3.04.03-5.37,1.92-5.88,4.92-.89,5.28-1.71,10.57-2.56,15.86-.05.32-.17.7.2.89.43.22.87.11,1.24-.18,1.36-1.06,2.71-2.13,4.06-3.21,4.02-3.2,8.04-6.4,12.05-9.61.58-.47.97-.54,1.36.22.59,1.14,1.24,2.25,1.91,3.35.34.56.23.88-.27,1.28-3.17,2.49-6.32,5.02-9.47,7.54-.19.15-.46.24-.52.73Zm7.97,27.34c5.43,0,10.86,0,16.29,0,.34,0,.8.16.99-.25.14-.29-.16-.54-.32-.78-3.63-5.56-7.25-11.13-10.9-16.67-1.67-2.53-4.09-3.97-7.09-4.03-5.87-.12-11.74-.04-17.61-.05-.66,0-.98.25-1.08.94-.7,4.49-1.47,8.97-2.14,13.47-.67,4.5,1.88,7.38,6.45,7.38,5.14,0,10.27,0,15.41,0Zm32.71-10.78c-4.73,0-9.47,0-14.2,0-.31,0-.73-.16-.89.21-.12.28.2.52.35.76,1.96,3.01,3.94,6.02,5.89,9.04.37.57.82.76,1.46.76,5.95-.01,11.89.02,17.84-.03,2.53-.02,4.7-1.85,5.39-4.28.45-1.59.08-3.13-.17-4.68-.3-1.79-.29-1.79-2.13-1.79-4.51,0-9.03,0-13.54,0Zm-.26-5.55c4.51,0,9.02,0,13.54,0,.57,0,1.24.15,1.07-.86-.53-3.18-1.03-6.37-1.53-9.55-.09-.57-.4-.8-.97-.82-1.32-.04-2.64-.16-3.95-.16-3.57,0-6.98-.79-10.33-1.95-.71-.24-1.11-.14-1.6.43-3.4,3.99-6.83,7.95-10.25,11.92-.2.23-.63.43-.43.8.17.33.6.19.91.19,4.51,0,9.02,0,13.54,0Z"/>
    <path class="cls-2" d="m123.62,29.95c-.25,3.16-1.06,6.2-2.17,9.17-3.06,8.21-7.16,15.93-11.48,23.52-1.83,3.22-3.74,6.4-5.62,9.6-2.51,4.29-7.81,4.48-10.53.3-3.51-5.39-6.61-11.01-9.62-16.69-3.2-6.03-6.07-12.21-8.37-18.66-4.09-11.47,1.49-22.77,10.25-28.2,8.93-5.54,20.98-4.64,28.84,2.26,5.12,4.49,8.04,10.1,8.49,16.94.02.29.08.58.11.87.03.29.06.58.09.9Zm-10.14.55c0-8.11-6.38-14.6-14.37-14.61-8.02-.01-14.72,6.54-14.69,14.37.04,8.15,6.56,14.7,14.61,14.69,7.98-.01,14.44-6.48,14.44-14.44Z"/>
    <path class="cls-2" d="m107.1,30.3c.01,4.57-3.59,8.22-8.12,8.25-4.38.03-8-3.63-8.01-8.09,0-4.53,3.6-8.21,8.01-8.18,4.45.03,8.1,3.64,8.12,8.02Z"/>
  </g>
  <g>
    <path class="cls-1" d="m14.48,176.61c-1.76,0-3.02-.26-3.78-.78-.76-.52-1.22-1.2-1.38-2.04-.16-.84-.24-1.74-.24-2.7v-30.96c0-.88.08-1.73.24-2.55.16-.82.62-1.5,1.38-2.04.76-.54,2.06-.81,3.9-.81,1.24,0,2.15.08,2.73.24.58.16,1,.36,1.26.6.26.24.53.52.81.84l12.42,15.96h-.36l12.36-15.9c.4-.44.77-.78,1.11-1.02.34-.24.8-.42,1.38-.54.58-.12,1.41-.18,2.49-.18,1.8,0,3.08.27,3.84.81.76.54,1.22,1.23,1.38,2.07.16.84.24,1.72.24,2.64v30.96c0,.88-.08,1.74-.24,2.58-.16.84-.62,1.52-1.38,2.04-.76.52-2.06.78-3.9.78s-3.08-.27-3.84-.81c-.76-.54-1.22-1.24-1.38-2.1-.16-.86-.24-1.73-.24-2.61v-17.04l-7.02,9.54c-.16.2-.4.5-.72.9-.32.4-.78.76-1.38,1.08-.6.32-1.44.48-2.52.48s-1.93-.16-2.55-.48c-.62-.32-1.09-.67-1.41-1.05-.32-.38-.56-.69-.72-.93l-6.96-9.48v17.1c0,.88-.08,1.74-.24,2.58-.16.84-.62,1.52-1.38,2.04-.76.52-2.06.78-3.9.78Z"/>
    <path class="cls-1" d="m97.34,169.05c.6,1.2.92,2.22.96,3.06.04.84-.22,1.58-.78,2.22-.56.64-1.46,1.28-2.7,1.92-1.92.92-3.4,1.21-4.44.87-1.04-.34-2.02-1.49-2.94-3.45l-10.2-20.88-10.08,20.94c-.96,1.88-1.96,2.99-3,3.33-1.04.34-2.5.05-4.38-.87-1.24-.6-2.15-1.22-2.73-1.86-.58-.64-.85-1.38-.81-2.22.04-.84.36-1.86.96-3.06l15.06-31.2c.48-.96,1.19-1.73,2.13-2.31.94-.58,1.91-.87,2.91-.87.72,0,1.39.13,2.01.39.62.26,1.19.63,1.71,1.11.52.48.94,1.06,1.26,1.74l15.06,31.14Zm-29.58-1.08l4.56-9.36h9.9l4.56,9.36h-19.02Z"/>
    <path class="cls-1" d="m106.16,176.61c-1.8,0-3.08-.27-3.84-.81-.76-.54-1.22-1.24-1.38-2.1-.16-.86-.24-1.73-.24-2.61v-30.96c0-.88.08-1.74.24-2.58.16-.84.62-1.53,1.38-2.07.76-.54,2.06-.81,3.9-.81h11.94c1.52,0,3.16.31,4.92.93,1.76.62,3.43,1.57,5.01,2.85,1.58,1.28,2.87,2.88,3.87,4.8s1.5,4.2,1.5,6.84-.5,4.86-1.5,6.78-2.29,3.51-3.87,4.77c-1.58,1.26-3.25,2.2-5.01,2.82-1.76.62-3.42.93-4.98.93h-6.42v5.76c0,.88-.08,1.74-.24,2.58-.16.84-.62,1.53-1.38,2.07-.76.54-2.06.81-3.9.81Zm5.52-22.2h6.48c.52,0,1.12-.13,1.8-.39.68-.26,1.28-.71,1.8-1.35.52-.64.78-1.52.78-2.64,0-.84-.2-1.59-.6-2.25-.4-.66-.93-1.18-1.59-1.56-.66-.38-1.41-.57-2.25-.57h-6.42v8.76Z"/>
    <path class="cls-1" d="m141.74,176.73c-2.32,0-3.86-.45-4.62-1.35s-1.14-2.39-1.14-4.47c0-.88.09-1.76.27-2.64.18-.88.67-1.61,1.47-2.19.8-.58,2.16-.87,4.08-.87,2.36,0,3.9.44,4.62,1.32.72.88,1.08,2.38,1.08,4.5,0,.88-.08,1.76-.24,2.64-.16.88-.64,1.61-1.44,2.19-.8.58-2.16.87-4.08.87Zm0-14.76c-1.8,0-3.08-.24-3.84-.72-.76-.48-1.22-1.09-1.38-1.83-.16-.74-.24-1.51-.24-2.31v-17.7c0-.8.08-1.58.24-2.34.16-.76.62-1.39,1.38-1.89.76-.5,2.06-.75,3.9-.75s3.13.25,3.87.75c.74.5,1.19,1.14,1.35,1.92.16.78.24,1.57.24,2.37v17.7c0,.8-.08,1.57-.24,2.31-.16.74-.62,1.34-1.38,1.8-.76.46-2.06.69-3.9.69Z"/>
    <path class="cls-1" d="m156.26,176.67c-1.76,0-3.02-.27-3.78-.81-.76-.54-1.22-1.23-1.38-2.07-.16-.84-.24-1.72-.24-2.64v-31.14c0-.88.08-1.72.24-2.52.16-.8.63-1.46,1.41-1.98.78-.52,2.07-.78,3.87-.78s2.96.22,3.6.66c.64.44,1.22,1,1.74,1.68l15,20.16v-17.22c0-.88.09-1.72.27-2.52.18-.8.65-1.46,1.41-1.98.76-.52,2.04-.78,3.84-.78s3.13.27,3.87.81,1.19,1.23,1.35,2.07c.16.84.24,1.72.24,2.64v30.96c0,.88-.08,1.74-.24,2.58s-.62,1.53-1.38,2.07c-.76.54-2.06.81-3.9.81-1.36,0-2.39-.11-3.09-.33-.7-.22-1.29-.65-1.77-1.29l-15.54-20.52v16.68c0,.88-.08,1.74-.24,2.58s-.62,1.53-1.38,2.07c-.76.54-2.06.81-3.9.81Z"/>
  </g>
  <g>
    <path class="cls-2" d="m19.28,195.4h-4.24v-7.14h4.24v1.55h-2.31v1.12h2.14v1.55h-2.14v1.35h2.31v1.57Z"/>
    <path class="cls-2" d="m30.96,195.4h-2.23l-1.39-2.23-1.38,2.23h-2.18l2.37-3.65-2.23-3.49h2.14l1.29,2.21,1.24-2.21h2.2l-2.26,3.64,2.43,3.5Z"/>
    <path class="cls-2" d="m38.23,188.26c.91,0,1.58.2,2.03.59.45.39.68.95.68,1.68,0,.33-.05.64-.14.94-.09.3-.24.57-.45.8-.21.23-.49.42-.84.56-.35.14-.77.21-1.28.21h-.54v2.37h-1.93v-7.14h2.47Zm-.04,1.56h-.5v1.64h.38c.17,0,.32-.03.46-.09s.26-.15.34-.28c.09-.13.13-.3.13-.52s-.07-.41-.2-.55-.34-.21-.62-.21Z"/>
    <path class="cls-2" d="m46.08,195.4v-7.14h1.93v5.58h2.75v1.56h-4.68Z"/>
    <path class="cls-2" d="m62.58,191.82c0,.55-.07,1.05-.2,1.5-.13.45-.34.84-.62,1.16s-.64.58-1.08.75-.96.26-1.58.26-1.12-.09-1.56-.26c-.44-.17-.8-.42-1.08-.75s-.49-.71-.63-1.16-.21-.96-.21-1.51c0-.74.12-1.39.37-1.94.25-.55.62-.97,1.14-1.27s1.17-.45,1.97-.45,1.48.15,1.99.45c.51.3.88.73,1.12,1.28s.36,1.2.36,1.94Zm-4.91,0c0,.43.05.8.15,1.11s.25.55.46.71.49.25.83.25.64-.08.85-.25c.21-.17.36-.4.46-.71.09-.31.14-.68.14-1.11,0-.64-.11-1.15-.32-1.53s-.58-.56-1.11-.56c-.35,0-.63.08-.84.25-.21.17-.37.41-.46.72-.1.31-.14.68-.14,1.11Z"/>
    <path class="cls-2" d="m70.2,188.26c.65,0,1.19.08,1.62.24s.75.39.97.71c.22.31.33.7.33,1.17,0,.29-.05.55-.15.79s-.24.45-.42.64c-.18.19-.4.35-.65.49l2.08,3.11h-2.19l-1.51-2.6h-.49v2.6h-1.93v-7.14h2.34Zm-.03,1.46h-.38v1.63h.36c.3,0,.54-.06.73-.2s.28-.36.28-.7c0-.23-.08-.41-.23-.54s-.41-.2-.76-.2Z"/>
    <path class="cls-2" d="m83.01,195.4l-.35-1.34h-2.32l-.36,1.34h-2.12l2.33-7.17h2.57l2.36,7.17h-2.11Zm-.75-2.92l-.31-1.17c-.03-.13-.08-.31-.14-.54s-.12-.48-.18-.73c-.06-.25-.11-.46-.14-.62-.03.16-.07.36-.12.6-.05.24-.11.48-.17.71-.06.23-.11.43-.15.59l-.31,1.17h1.52Z"/>
    <path class="cls-2" d="m96.49,195.4v-7.14h1.93v5.58h2.75v1.56h-4.68Z"/>
    <path class="cls-2" d="m110.69,195.4l-.35-1.34h-2.32l-.36,1.34h-2.12l2.33-7.17h2.57l2.36,7.17h-2.11Zm-.75-2.92l-.31-1.17c-.03-.13-.08-.31-.14-.54s-.12-.48-.18-.73c-.06-.25-.11-.46-.14-.62-.03.16-.07.36-.12.6-.05.24-.11.48-.17.71-.06.23-.11.43-.15.59l-.31,1.17h1.52Z"/>
    <path class="cls-2" d="m127.35,189.74c-.23,0-.43.05-.61.14s-.33.24-.46.42-.22.4-.29.67c-.07.26-.1.56-.1.89,0,.45.06.83.17,1.13s.29.54.52.69c.23.16.52.23.88.23.32,0,.63-.04.92-.13.29-.09.59-.19.89-.32v1.63c-.32.14-.64.24-.97.3-.33.06-.68.09-1.05.09-.77,0-1.41-.15-1.9-.46-.49-.31-.86-.73-1.09-1.28-.23-.55-.35-1.18-.35-1.9,0-.54.08-1.04.23-1.48.15-.45.37-.84.67-1.17s.66-.59,1.09-.77c.43-.18.92-.27,1.48-.27.34,0,.71.04,1.09.12.38.08.76.21,1.12.38l-.59,1.52c-.26-.12-.52-.23-.79-.31s-.55-.13-.85-.13Z"/>
    <path class="cls-2" d="m134.66,195.4v-7.14h1.94v7.14h-1.94Z"/>
    <path class="cls-2" d="m148.21,188.26v4.3c0,.6-.11,1.12-.34,1.56s-.57.78-1.03,1.02-1.03.36-1.71.36c-.98,0-1.73-.25-2.25-.76s-.78-1.22-.78-2.14v-4.34h1.94v4.19c0,.5.09.87.28,1.1s.47.34.83.34c.26,0,.48-.05.64-.15s.29-.26.36-.47c.08-.21.12-.49.12-.83v-4.18h1.93Z"/>
    <path class="cls-2" d="m159.77,191.68c0,.83-.15,1.52-.46,2.07s-.74.96-1.31,1.24c-.56.27-1.22.41-1.98.41h-2.31v-7.14h2.47c.77,0,1.42.13,1.95.4s.94.65,1.22,1.16c.28.51.42,1.13.42,1.87Zm-2,.07c0-.43-.06-.79-.17-1.08-.12-.28-.29-.5-.52-.64s-.52-.21-.87-.21h-.56v4h.43c.59,0,1.02-.17,1.29-.51s.41-.86.41-1.56Z"/>
    <path class="cls-2" d="m169.43,195.4l-.35-1.34h-2.32l-.36,1.34h-2.12l2.33-7.17h2.57l2.36,7.17h-2.11Zm-.75-2.92l-.31-1.17c-.03-.13-.08-.31-.14-.54s-.12-.48-.18-.73c-.06-.25-.11-.46-.14-.62-.03.16-.07.36-.12.6-.05.24-.11.48-.17.71-.06.23-.11.43-.15.59l-.31,1.17h1.52Z"/>
    <path class="cls-2" d="m182.37,191.68c0,.83-.15,1.52-.46,2.07s-.74.96-1.31,1.24c-.56.27-1.22.41-1.98.41h-2.31v-7.14h2.47c.77,0,1.42.13,1.95.4s.94.65,1.22,1.16c.28.51.42,1.13.42,1.87Zm-2,.07c0-.43-.06-.79-.17-1.08-.12-.28-.29-.5-.52-.64s-.52-.21-.87-.21h-.56v4h.43c.59,0,1.02-.17,1.29-.51s.41-.86.41-1.56Z"/>
  </g>
</svg>