<?xml version="1.0" encoding="UTF-8"?>
<svg id="Capa_1" data-name="Capa 1" xmlns="http://www.w3.org/2000/svg" viewBox="0 0 197.97 75.19">
  <defs>
    <style>
      .cls-1 {
        fill: #555554;
      }

      .cls-2 {
        fill: #1aac8c;
      }
    </style>
  </defs>
  <g>
    <path class="cls-1" d="m14.48,47.21c-1.76,0-3.02-.26-3.78-.78-.76-.52-1.22-1.2-1.38-2.04-.16-.84-.24-1.74-.24-2.7V10.73c0-.88.08-1.73.24-2.55.16-.82.62-1.5,1.38-2.04.76-.54,2.06-.81,3.9-.81,1.24,0,2.15.08,2.73.24.58.16,1,.36,1.26.6.26.24.53.52.81.84l12.42,15.96h-.36l12.36-15.9c.4-.44.77-.78,1.11-1.02.34-.24.8-.42,1.38-.54.58-.12,1.41-.18,2.49-.18,1.8,0,3.08.27,3.84.81.76.54,1.22,1.23,1.38,2.07.16.84.24,1.72.24,2.64v30.96c0,.88-.08,1.74-.24,2.58-.16.84-.62,1.52-1.38,2.04-.76.52-2.06.78-3.9.78s-3.08-.27-3.84-.81c-.76-.54-1.22-1.24-1.38-2.1-.16-.86-.24-1.73-.24-2.61v-17.04l-7.02,9.54c-.16.2-.4.5-.72.9-.32.4-.78.76-1.38,1.08-.6.32-1.44.48-2.52.48s-1.93-.16-2.55-.48c-.62-.32-1.09-.67-1.41-1.05-.32-.38-.56-.69-.72-.93l-6.96-9.48v17.1c0,.88-.08,1.74-.24,2.58-.16.84-.62,1.52-1.38,2.04-.76.52-2.06.78-3.9.78Z"/>
    <path class="cls-1" d="m97.34,39.65c.6,1.2.92,2.22.96,3.06.04.84-.22,1.58-.78,2.22-.56.64-1.46,1.28-2.7,1.92-1.92.92-3.4,1.21-4.44.87-1.04-.34-2.02-1.49-2.94-3.45l-10.2-20.88-10.08,20.94c-.96,1.88-1.96,2.99-3,3.33-1.04.34-2.5.05-4.38-.87-1.24-.6-2.15-1.22-2.73-1.86-.58-.64-.85-1.38-.81-2.22.04-.84.36-1.86.96-3.06l15.06-31.2c.48-.96,1.19-1.73,2.13-2.31.94-.58,1.91-.87,2.91-.87.72,0,1.39.13,2.01.39.62.26,1.19.63,1.71,1.11.52.48.94,1.06,1.26,1.74l15.06,31.14Zm-29.58-1.08l4.56-9.36h9.9l4.56,9.36h-19.02Z"/>
    <path class="cls-1" d="m106.16,47.21c-1.8,0-3.08-.27-3.84-.81-.76-.54-1.22-1.24-1.38-2.1-.16-.86-.24-1.73-.24-2.61V10.73c0-.88.08-1.74.24-2.58.16-.84.62-1.53,1.38-2.07.76-.54,2.06-.81,3.9-.81h11.94c1.52,0,3.16.31,4.92.93,1.76.62,3.43,1.57,5.01,2.85,1.58,1.28,2.87,2.88,3.87,4.8s1.5,4.2,1.5,6.84-.5,4.86-1.5,6.78-2.29,3.51-3.87,4.77c-1.58,1.26-3.25,2.2-5.01,2.82-1.76.62-3.42.93-4.98.93h-6.42v5.76c0,.88-.08,1.74-.24,2.58-.16.84-.62,1.53-1.38,2.07-.76.54-2.06.81-3.9.81Zm5.52-22.2h6.48c.52,0,1.12-.13,1.8-.39.68-.26,1.28-.71,1.8-1.35.52-.64.78-1.52.78-2.64,0-.84-.2-1.59-.6-2.25-.4-.66-.93-1.18-1.59-1.56-.66-.38-1.41-.57-2.25-.57h-6.42v8.76Z"/>
    <path class="cls-1" d="m141.74,47.33c-2.32,0-3.86-.45-4.62-1.35s-1.14-2.39-1.14-4.47c0-.88.09-1.76.27-2.64.18-.88.67-1.61,1.47-2.19.8-.58,2.16-.87,4.08-.87,2.36,0,3.9.44,4.62,1.32.72.88,1.08,2.38,1.08,4.5,0,.88-.08,1.76-.24,2.64-.16.88-.64,1.61-1.44,2.19-.8.58-2.16.87-4.08.87Zm0-14.76c-1.8,0-3.08-.24-3.84-.72-.76-.48-1.22-1.09-1.38-1.83-.16-.74-.24-1.51-.24-2.31V10.01c0-.8.08-1.58.24-2.34.16-.76.62-1.39,1.38-1.89.76-.5,2.06-.75,3.9-.75s3.13.25,3.87.75c.74.5,1.19,1.14,1.35,1.92.16.78.24,1.57.24,2.37v17.7c0,.8-.08,1.57-.24,2.31-.16.74-.62,1.34-1.38,1.8-.76.46-2.06.69-3.9.69Z"/>
    <path class="cls-1" d="m156.26,47.27c-1.76,0-3.02-.27-3.78-.81-.76-.54-1.22-1.23-1.38-2.07-.16-.84-.24-1.72-.24-2.64V10.61c0-.88.08-1.72.24-2.52.16-.8.63-1.46,1.41-1.98.78-.52,2.07-.78,3.87-.78s2.96.22,3.6.66c.64.44,1.22,1,1.74,1.68l15,20.16V10.61c0-.88.09-1.72.27-2.52.18-.8.65-1.46,1.41-1.98.76-.52,2.04-.78,3.84-.78s3.13.27,3.87.81,1.19,1.23,1.35,2.07c.16.84.24,1.72.24,2.64v30.96c0,.88-.08,1.74-.24,2.58s-.62,1.53-1.38,2.07c-.76.54-2.06.81-3.9.81-1.36,0-2.39-.11-3.09-.33-.7-.22-1.29-.65-1.77-1.29l-15.54-20.52v16.68c0,.88-.08,1.74-.24,2.58s-.62,1.53-1.38,2.07c-.76.54-2.06.81-3.9.81Z"/>
  </g>
  <g>
    <path class="cls-2" d="m19.28,66h-4.24v-7.14h4.24v1.55h-2.31v1.12h2.14v1.55h-2.14v1.35h2.31v1.57Z"/>
    <path class="cls-2" d="m30.96,66h-2.23l-1.39-2.23-1.38,2.23h-2.18l2.37-3.65-2.23-3.49h2.14l1.29,2.21,1.24-2.21h2.2l-2.26,3.64,2.43,3.5Z"/>
    <path class="cls-2" d="m38.23,58.87c.91,0,1.58.2,2.03.59.45.39.68.95.68,1.68,0,.33-.05.64-.14.94-.09.3-.24.57-.45.8-.21.23-.49.42-.84.56-.35.14-.77.21-1.28.21h-.54v2.37h-1.93v-7.14h2.47Zm-.04,1.56h-.5v1.64h.38c.17,0,.32-.03.46-.08.14-.06.26-.15.34-.28.09-.13.13-.3.13-.52s-.07-.41-.2-.55-.34-.21-.62-.21Z"/>
    <path class="cls-2" d="m46.08,66v-7.14h1.93v5.58h2.75v1.56h-4.68Z"/>
    <path class="cls-2" d="m62.58,62.43c0,.55-.07,1.05-.2,1.5-.13.45-.34.84-.62,1.16-.28.33-.64.58-1.08.75-.44.17-.96.26-1.58.26s-1.12-.09-1.56-.26c-.44-.17-.8-.42-1.08-.75-.28-.32-.49-.71-.63-1.17-.14-.45-.21-.96-.21-1.51,0-.74.12-1.39.37-1.94.25-.55.62-.97,1.14-1.27.51-.3,1.17-.45,1.97-.45s1.48.15,1.99.45c.51.3.88.73,1.12,1.28.24.55.36,1.2.36,1.94Zm-4.91,0c0,.43.05.8.15,1.11.1.31.25.55.46.71s.49.25.83.25.64-.08.85-.25c.21-.17.36-.4.46-.71.09-.31.14-.68.14-1.11,0-.64-.11-1.15-.32-1.53-.21-.37-.58-.56-1.11-.56-.35,0-.63.08-.84.25-.21.17-.37.41-.46.72-.1.31-.14.68-.14,1.11Z"/>
    <path class="cls-2" d="m70.2,58.87c.65,0,1.19.08,1.62.24.43.16.75.39.97.71.22.31.33.7.33,1.17,0,.29-.05.55-.15.79-.1.24-.24.45-.42.64-.18.19-.4.35-.65.49l2.08,3.11h-2.19l-1.51-2.6h-.49v2.6h-1.93v-7.14h2.34Zm-.03,1.46h-.38v1.63h.36c.3,0,.54-.06.73-.2.19-.13.28-.36.28-.7,0-.23-.08-.41-.23-.54-.16-.13-.41-.2-.76-.2Z"/>
    <path class="cls-2" d="m83.01,66l-.35-1.34h-2.32l-.36,1.34h-2.12l2.33-7.17h2.57l2.36,7.17h-2.11Zm-.75-2.92l-.31-1.17c-.03-.13-.08-.31-.14-.54-.06-.24-.12-.48-.18-.73-.06-.25-.11-.46-.14-.62-.03.16-.07.36-.12.6-.05.24-.11.48-.17.71-.06.23-.11.43-.15.59l-.31,1.17h1.52Z"/>
    <path class="cls-2" d="m96.49,66v-7.14h1.93v5.58h2.75v1.56h-4.68Z"/>
    <path class="cls-2" d="m110.69,66l-.35-1.34h-2.32l-.36,1.34h-2.12l2.33-7.17h2.57l2.36,7.17h-2.11Zm-.75-2.92l-.31-1.17c-.03-.13-.08-.31-.14-.54-.06-.24-.12-.48-.18-.73-.06-.25-.11-.46-.14-.62-.03.16-.07.36-.12.6-.05.24-.11.48-.17.71-.06.23-.11.43-.15.59l-.31,1.17h1.52Z"/>
    <path class="cls-2" d="m127.35,60.35c-.23,0-.43.05-.61.14-.18.1-.33.24-.46.42-.13.18-.22.4-.29.67-.07.26-.1.56-.1.89,0,.45.06.83.17,1.13.11.31.29.54.52.69.23.16.52.23.88.23.32,0,.63-.04.92-.13.29-.09.59-.19.89-.32v1.63c-.32.14-.64.24-.97.3-.33.06-.68.09-1.05.09-.77,0-1.41-.15-1.9-.46-.49-.31-.86-.74-1.09-1.28-.23-.55-.35-1.18-.35-1.9,0-.54.08-1.04.23-1.48.15-.45.37-.84.67-1.17.29-.33.66-.59,1.09-.77.43-.18.92-.27,1.48-.27.34,0,.71.04,1.09.12.38.08.76.21,1.12.38l-.59,1.52c-.26-.12-.52-.23-.79-.31-.27-.08-.55-.13-.85-.13Z"/>
    <path class="cls-2" d="m134.66,66v-7.14h1.94v7.14h-1.94Z"/>
    <path class="cls-2" d="m148.21,58.87v4.3c0,.6-.11,1.12-.34,1.56-.23.44-.57.78-1.03,1.02s-1.03.36-1.71.36c-.98,0-1.73-.25-2.25-.76-.52-.5-.78-1.22-.78-2.14v-4.34h1.94v4.19c0,.5.09.87.28,1.1.19.23.47.34.83.34.26,0,.48-.05.64-.15.17-.1.29-.26.36-.47.08-.21.12-.49.12-.83v-4.18h1.93Z"/>
    <path class="cls-2" d="m159.77,62.28c0,.83-.15,1.52-.46,2.07-.31.55-.74.96-1.31,1.24-.56.27-1.22.41-1.98.41h-2.31v-7.14h2.47c.77,0,1.42.13,1.95.4s.94.65,1.22,1.16c.28.51.42,1.13.42,1.87Zm-2,.07c0-.43-.06-.79-.17-1.08-.12-.29-.29-.5-.52-.64s-.52-.21-.87-.21h-.56v4h.43c.59,0,1.02-.17,1.29-.51.27-.34.41-.86.41-1.56Z"/>
    <path class="cls-2" d="m169.43,66l-.35-1.34h-2.32l-.36,1.34h-2.12l2.33-7.17h2.57l2.36,7.17h-2.11Zm-.75-2.92l-.31-1.17c-.03-.13-.08-.31-.14-.54-.06-.24-.12-.48-.18-.73-.06-.25-.11-.46-.14-.62-.03.16-.07.36-.12.6-.05.24-.11.48-.17.71-.06.23-.11.43-.15.59l-.31,1.17h1.52Z"/>
    <path class="cls-2" d="m182.37,62.28c0,.83-.15,1.52-.46,2.07-.31.55-.74.96-1.31,1.24-.56.27-1.22.41-1.98.41h-2.31v-7.14h2.47c.77,0,1.42.13,1.95.4s.94.65,1.22,1.16c.28.51.42,1.13.42,1.87Zm-2,.07c0-.43-.06-.79-.17-1.08-.12-.29-.29-.5-.52-.64s-.52-.21-.87-.21h-.56v4h.43c.59,0,1.02-.17,1.29-.51.27-.34.41-.86.41-1.56Z"/>
  </g>
</svg>